<?xml version="1.0" standalone="no"?> 
<!DOCTYPE svg PUBLIC "-//W3C//DTD SVG 1.1//EN" "http://www.w3.org/Graphics/SVG/1.1/DTD/svg11.dtd" >
<svg xmlns="http://www.w3.org/2000/svg">
<defs>
  <font id="travTrolley" horiz-adv-x="1024">
    <font-face font-family="travTrolley"
      units-per-em="1000" ascent="1000"
      descent="0" />
    <missing-glyph horiz-adv-x="0" />
    <glyph glyph-name="account_box"
      unicode="&#xEA01;"
      horiz-adv-x="1000" d="M249.9791666666668 291.0000000000001V250H749.9791666666667V291.0000000000001C749.9791666666667 375.0000000000001 583.9791666666667 419.9166666666668 499.9791666666667 419.9166666666668S249.9791666666668 375.0000000000001 249.9791666666668 291.0000000000001zM624.9791666666667 625C624.9791666666667 693.375 568.3541666666667 750 499.9791666666667 750S374.9791666666668 693.375 374.9791666666668 625S431.6041666666668 500 499.9791666666667 500S624.9791666666667 556.625 624.9791666666667 625zM124.9791666666668 791C124.9791666666668 835.9166666666667 162.1041666666668 875 208.9791666666668 875H791.0208333333334C835.9375 875 875.0208333333333 835.9166666666667 875.0208333333333 791V208.9583333333334C875.0208333333333 164.0416666666668 835.9375 124.9583333333335 791.0208333333334 124.9583333333335H208.9791666666668C162.1041666666668 124.9583333333335 124.9791666666668 164.0416666666668 124.9791666666668 208.9583333333334V791z" />
    <glyph glyph-name="account_circle"
      unicode="&#xEA02;"
      horiz-adv-x="1000" d="M499.9999999999999 199.2083333333334C603.5 199.2083333333334 695.3333333333333 253.9166666666667 750 333.9583333333335C748.0416666666666 416 582.0416666666666 462.875 499.9999999999999 462.875C416 462.875 251.9583333333333 416 250 333.9583333333335C304.7083333333333 253.875 396.5 199.2083333333334 499.9999999999999 199.2083333333334zM499.9999999999999 791C431.625 791 375 734.375 375 666S431.625 541 499.9999999999999 541S625 597.625 625 666S568.375 791 499.9999999999999 791zM499.9999999999999 916C730.4583333333333 916 916 730.4583333333333 916 500S730.4583333333334 84 500.0000000000001 84S84.0000000000001 269.5416666666667 84.0000000000001 499.9999999999999S269.5416666666668 915.9999999999998 500.0000000000001 915.9999999999998z" />
    <glyph glyph-name="add"
      unicode="&#xEA03;"
      horiz-adv-x="1000" d="M791.0208333333333 459H541.0208333333333V209H458.9791666666667V459H208.9791666666667V541.0416666666665H458.9791666666667V791.0416666666665H541.0208333333333V541.0416666666665H791.0208333333333V459z" />
    <glyph glyph-name="adjust"
      unicode="&#xEA04;"
      horiz-adv-x="1000" d="M625 500C625 431.625 568.375 375 499.9999999999999 375S375 431.625 375 500S431.625 625 499.9999999999999 625S625 568.375 625 500zM499.9999999999999 166.0000000000001C683.5833333333333 166.0000000000001 833.9999999999999 316.3750000000003 833.9999999999999 500.0000000000001S683.6249999999998 834.0000000000001 499.9999999999998 834.0000000000001S165.9999999999998 683.6250000000001 165.9999999999998 500.0000000000001S316.3749999999999 166.0000000000001 499.9999999999998 166.0000000000001zM499.9999999999999 916C730.4583333333333 916 916 730.4583333333333 916 500S730.4583333333334 84 500.0000000000001 84S84.0000000000001 269.5416666666667 84.0000000000001 499.9999999999999S269.5416666666668 915.9999999999998 500.0000000000001 915.9999999999998z" />
    <glyph glyph-name="airconditioned"
      unicode="&#xEA05;"
      horiz-adv-x="1000" d="M916.078125 541V458.9687499999999H742.234375L877.015625 324.1875L818.421875 263.625L625.046875 458.9375H541.046875V374.9375L736.359375 181.5625000000001L675.7968750000001 122.9687500000001L541.0156250000001 257.75V83.9062500000001H458.9843750000001V257.75L324.2031250000002 122.9687500000001L263.6406250000001 181.5625000000001L458.9531250000001 374.9375V458.9375H374.9531250000001L181.5781250000001 263.625L122.9843750000001 324.1875L257.7656250000001 458.9687499999999H83.9218750000001V541H257.7656250000001L122.9843750000001 675.7812499999999L181.5781250000001 736.3437499999999L374.9531250000001 541.0312499999999H458.9531250000001V625.03125L263.6406250000001 818.4062499999999L324.2031250000002 876.9999999999999L458.9843750000001 742.21875V916.0624999999998H541.0156250000001V742.21875L675.7968750000001 876.9999999999999L736.359375 818.4062499999999L541.046875 625.03125V541.0312499999999H625.046875L818.421875 736.3437499999999L877.015625 675.7812499999999L742.234375 541H916.078125z" />
    <glyph glyph-name="aircraft-take-off"
      unicode="&#xEA06;"
      horiz-adv-x="1000" d="M984.275 677.3499999999999C990.225 664.5 990.625 612.8499999999999 740.075 495.2499999999999L494.425 379.9500000000001C408.925 339.8 284.8750000000001 287 230.1750000000001 272.4C191.875 262.2000000000001 155.3250000000001 288.2000000000001 155.3250000000001 288.2000000000001S45.025 386.9500000000001 15.725 409.1500000000001C-13.525 431.3500000000002 -11.025 442.6500000000001 26.475 454.6500000000001C49.825 462.1 182.975 430.0000000000001 239.725 415.6500000000001C306.675 455.6500000000002 367.8250000000001 489.9500000000002 396.7750000000002 505.5500000000001C326.9750000000002 557.2 196.3750000000002 653.6500000000001 154.7250000000001 683.0500000000002C114.7750000000001 711.3000000000002 155.225 721.45 155.225 721.45C173.625 726.4000000000001 213.3250000000001 732.8500000000001 233.3250000000002 728.6500000000001C369.3750000000001 700.2 596.475 625.1000000000001 613.875 619.3500000000001C655.475 641.1500000000001 720.275 673.9500000000002 759.975 692.6000000000001C863.7249999999999 741.3000000000002 976.325 694.45 984.275 677.3500000000001z" />
    <glyph glyph-name="airport-shuttle"
      unicode="&#xEA07;"
      horiz-adv-x="1000" d="M625 541H834L666.03125 708.96875H625V541zM728.53125 271.46875C763.6875 271.46875 791.03125 298.8125 791.03125 333.96875S763.6875 396.46875 728.53125 396.46875S666.03125 369.125 666.03125 333.96875S693.375 271.46875 728.53125 271.46875zM541.03125 541V708.96875H375V541H541.03125zM250 271.46875C285.15625 271.46875 312.5 298.8125 312.5 333.96875S285.15625 396.46875 250 396.46875S187.5 369.125 187.5 333.96875S214.84375 271.46875 250 271.46875zM125 541H291.03125V708.96875H125V541zM709 791L959 541V333.96875H853.53125C853.53125 265.5937500000001 796.875 208.96875 728.53125 208.96875S603.53125 265.625 603.53125 333.96875H375C375 265.5937500000001 318.34375 208.96875 250 208.96875S125 265.625 125 333.96875H41V708.96875C41 755.84375 80.0625 791 125 791H709z" />
    <glyph glyph-name="angle-double-down"
      unicode="&#xEA08;"
      horiz-adv-x="642.8571428571429" d="M599.8571428571429 517.8571428571429C599.8571428571429 513.3928571428571 597.6071428571429 508.3571428571428 594.2857142857143 505.0357142857143L334.2500000000001 245C330.8928571428573 241.6428571428571 325.8928571428573 239.4285714285715 321.4285714285716 239.4285714285715S311.9285714285716 241.6785714285714 308.607142857143 245L48.5714285714287 505.0357142857142C45.2142857142858 508.3928571428571 43.0000000000001 513.3928571428571 43.0000000000001 517.8571428571428S45.2500000000001 527.3571428571428 48.5714285714287 530.6785714285713L76.4642857142858 558.5714285714284C79.8214285714287 561.9285714285713 84.2857142857144 564.1428571428571 89.2857142857144 564.1428571428571C93.7500000000001 564.1428571428571 98.7857142857144 561.8928571428571 102.107142857143 558.5714285714284L321.4285714285716 339.2499999999999L540.7500000000001 558.5714285714284C544.1071428571429 561.9285714285713 549.1071428571429 564.1428571428571 553.5714285714287 564.1428571428571S563.0714285714287 561.8928571428571 566.3928571428572 558.5714285714284L594.2857142857143 530.6785714285713C597.6428571428572 527.3214285714284 599.8571428571429 522.3214285714284 599.8571428571429 517.8571428571428zM599.8571428571429 732.1428571428571C599.8571428571429 727.6785714285714 597.6071428571429 722.6428571428571 594.2857142857143 719.3214285714286L334.2500000000001 459.2857142857142C330.8928571428573 455.9285714285714 325.8928571428573 453.7142857142857 321.4285714285716 453.7142857142857S311.9285714285716 455.9642857142857 308.607142857143 459.2857142857142L48.5714285714287 719.3214285714286C45.2142857142858 722.6785714285713 43.0000000000001 727.6785714285713 43.0000000000001 732.1428571428571S45.2500000000001 741.6428571428571 48.5714285714287 744.9642857142857L76.4642857142858 772.8571428571428C79.8214285714287 776.2142857142857 84.2857142857144 778.4285714285713 89.2857142857144 778.4285714285713C93.7500000000001 778.4285714285713 98.7857142857144 776.1785714285713 102.107142857143 772.8571428571428L321.4285714285716 553.5357142857142L540.7500000000001 772.8571428571428C544.1071428571429 776.2142857142857 549.1071428571429 778.4285714285713 553.5714285714287 778.4285714285713S563.0714285714287 776.1785714285713 566.3928571428572 772.8571428571428L594.2857142857143 744.9642857142857C597.6428571428572 741.6071428571429 599.8571428571429 736.6071428571429 599.8571428571429 732.1428571428571z" />
    <glyph glyph-name="angle-down"
      unicode="&#xEA09;"
      horiz-adv-x="642.8571428571429" d="M599.8571428571429 589.2857142857142C599.8571428571429 584.8214285714286 597.6071428571429 579.7857142857142 594.2857142857143 576.4642857142858L334.2500000000001 316.4285714285715C330.8928571428573 313.0714285714285 325.8928571428573 310.8571428571429 321.4285714285716 310.8571428571429S311.9285714285716 313.1071428571428 308.607142857143 316.4285714285715L48.5714285714287 576.4642857142857C45.2142857142858 579.8214285714284 43.0000000000001 584.8214285714284 43.0000000000001 589.2857142857142S45.2500000000001 598.7857142857142 48.5714285714287 602.1071428571428L76.4642857142858 630C79.8214285714287 633.3571428571428 84.2857142857144 635.5714285714286 89.2857142857144 635.5714285714286C93.7500000000001 635.5714285714286 98.7857142857144 633.3214285714284 102.107142857143 630L321.4285714285716 410.6785714285714L540.7500000000001 630C544.1071428571429 633.3571428571428 549.1071428571429 635.5714285714286 553.5714285714287 635.5714285714286S563.0714285714287 633.3214285714284 566.3928571428572 630L594.2857142857143 602.1071428571428C597.6428571428572 598.75 599.8571428571429 593.75 599.8571428571429 589.2857142857142z" />
    <glyph glyph-name="apps"
      unicode="&#xEA0A;"
      horiz-adv-x="1000" d="M666.0208333333334 166.0000000000001V333.9583333333335H833.9791666666666V166.0000000000001H666.0208333333334zM666.0208333333334 416V583.9583333333334H833.9791666666666V416.0000000000001H666.0208333333334zM416.0208333333334 666V833.9583333333334H583.9791666666667V666H416.0208333333335zM666.0208333333334 834H833.9791666666666V666.0416666666667H666.0208333333334V834zM416.0208333333334 416V583.9583333333334H583.9791666666667V416.0000000000001H416.0208333333335zM166.0208333333334 416V583.9583333333334H333.9791666666667V416.0000000000001H166.0208333333334zM166.0208333333334 166.0000000000001V333.9583333333335H333.9791666666667V166.0000000000001H166.0208333333334zM416.0208333333334 166.0000000000001V333.9583333333335H583.9791666666667V166.0000000000001H416.0208333333335zM166.0208333333334 666V833.9583333333334H333.9791666666667V666H166.0208333333334z" />
    <glyph glyph-name="arrow2"
      unicode="&#xEA0B;"
      horiz-adv-x="1000" d="M762.6890227425871 543.9476807623504L325.192656973105 981.4474669840846C312.8208811769093 993.8192427802804 298.1881864420114 1000 281.2501068891329 1000C264.3120273362544 1000 249.6690712446 993.8192427802804 237.2972954484042 981.4474669840846C224.9255196522084 969.0756911878888 218.7447624324889 954.4327350962344 218.7447624324889 937.5049169001126V62.5087649088962C218.7447624324889 45.5843671650265 224.9255196522084 30.9311497166153 237.2972954484042 18.5662148249241C249.6827530536088 6.1944390287283 264.3257091452632 0 281.2501068891329 0C298.1779250852548 0 312.8208811769093 6.1944390287283 325.192656973105 18.5662148249241L762.689022742587 456.0660010466584C775.0505371820262 468.4240950338453 781.2552375675111 483.0773124822563 781.2552375675111 500.0085511306305C781.2552375675112 516.9329488745001 775.0539576342784 531.5759049661546 762.6890227425871 543.9476807623504z" />
    <glyph glyph-name="arrow_drop_down"
      unicode="&#xEA0C;"
      horiz-adv-x="1000" d="M291.0208333333333 584H708.9791666666667L499.9791666666666 375z" />
    <glyph glyph-name="arrow_drop_right"
      unicode="&#xEA0D;"
      horiz-adv-x="1000" d="M395.5 709L604.5 500L395.5000000000001 291V708.9580078125z" />
    <glyph glyph-name="arrow_drop_up"
      unicode="&#xEA0E;"
      horiz-adv-x="1000" d="M291.0000000000001 416L500.0000000000001 625L709 416H291.0416666666667z" />
    <glyph glyph-name="balcony"
      unicode="&#xEA0F;"
      horiz-adv-x="1000" d="M60.546875 177.734375H177.734375V353.515625H236.328125V177.734375H294.921875V353.515625H353.515625V177.734375H412.109375V353.515625H470.703125V177.734375H529.296875V353.515625H587.890625V177.734375H646.484375V353.515625H705.078125V177.734375H763.671875V353.515625H822.265625V177.734375H941.40625V353.515625H1000V412.109375H0V353.515625H60.546875zM60.546875 177.734375M822.265625 677.734375C822.265625 845.542908203125 693.29833984375 985.130310546875 529.296875 1000V970.703125C529.296875 870.4833984375 574.729919921875 777.671814453125 653.9840703125 716.1025996093749C703.0563359375 677.9632578124999 761.2686152343749 655.609130859375 822.265625 650.0701914062499zM822.265625 677.734375M470.703125 970.703125V1000C306.70166015625 985.130310546875 177.734375 845.542908203125 177.734375 677.734375V650.4058828125001C227.684021484375 654.84619140625 275.95519921875 670.166015625 319.58770703125 697.5860585937501C414.199828125 757.0114140625 470.703125 859.12323046875 470.703125 970.703125zM470.703125 970.703125M822.265625 470.703125V591.0186757812501C781.837462890625 593.9483632812501 742.576599609375 603.9047246093751 705.078125 619.7280878906249V470.703125zM822.265625 470.703125M177.734375 470.703125H294.921875V619.140625C257.423400390625 603.3248906250001 217.57507421875 594.5358281250001 177.734375 591.6061406250001zM177.734375 470.703125M60.546875 119.140625H941.40625V0H60.546875zM60.546875 119.140625" />
    <glyph glyph-name="bars"
      unicode="&#xEA10;"
      horiz-adv-x="1000" d="M783.203125 322.265625C783.203125 338.4170527343751 770.0576777343749 351.5625 753.90625 351.5625H636.71875C620.567322265625 351.5625 607.421875 338.4170527343749 607.421875 322.265625S620.5673222656251 292.96875 636.71875 292.96875H753.90625C770.057677734375 292.96875 783.203125 306.1141972656251 783.203125 322.265625zM783.203125 322.265625M970.703125 566.40625H29.296875C13.1149296875 566.40625 0 553.2913203124999 0 537.109375V146.484375C0 130.3024296875 13.1149296875 117.1875 29.296875 117.1875H275.390625V234.375H246.09375C197.6318359375 234.375 158.203125 273.8037109375 158.203125 322.265625S197.6318359375 410.15625 246.09375 410.15625H363.28125C411.7431640625 410.15625 451.171875 370.7275390625 451.171875 322.265625S411.7431640625 234.375 363.28125 234.375H333.984375V117.1875H666.015625V234.375H636.71875C588.2568359375 234.375 548.828125 273.8037109375 548.828125 322.265625S588.2568359375 410.15625 636.71875 410.15625H753.90625C802.3681640625 410.15625 841.796875 370.7275390625 841.796875 322.265625S802.3681640625 234.375 753.90625 234.375H724.609375V117.1875H970.703125C986.8850703125 117.1875 1000 130.3024296875001 1000 146.484375V537.109375C1000 553.2913203124999 986.8850703125 566.40625 970.703125 566.40625zM970.703125 566.40625M666.015625 58.59375H617.1875C601.0055546875 58.59375 587.890625 45.4788203124999 587.890625 29.296875S601.0055546875001 0 617.1875 0H773.4375C789.6194453125 0 802.734375 13.1149296875001 802.734375 29.296875S789.6194453124999 58.59375 773.4375 58.59375H724.609375V117.1875H666.015625zM666.015625 58.59375M275.390625 58.59375H226.5625C210.3805546875 58.59375 197.265625 45.4788203124999 197.265625 29.296875S210.3805546875 0 226.5625 0H382.8125C398.9944453125 0 412.109375 13.1149296875001 412.109375 29.296875S398.9944453125 58.59375 382.8125 58.59375H333.984375V117.1875H275.390625zM275.390625 58.59375M392.578125 322.265625C392.578125 338.4170527343751 379.432677734375 351.5625 363.28125 351.5625H246.09375C229.942322265625 351.5625 216.796875 338.4170527343749 216.796875 322.265625S229.942322265625 292.96875 246.09375 292.96875H363.28125C379.432677734375 292.96875 392.578125 306.1141972656251 392.578125 322.265625zM392.578125 322.265625M29.296875 941.40625H119.140625V879.364013671875C63.2171640625 866.09649609375 21.484375 815.7806406249999 21.484375 755.859375V736.328125C21.484375 720.1461796875001 34.5993046875 707.03125 50.78125 707.03125H246.09375C262.2756953125 707.03125 275.390625 720.1461796875001 275.390625 736.328125V755.859375C275.390625 815.7806406249999 233.6578359375 866.09649609375 177.734375 879.364013671875V941.40625H470.703125V879.364013671875C414.7796640625 866.09649609375 373.046875 815.7806406249999 373.046875 755.859375V736.328125C373.046875 720.1461796875001 386.1618046875 707.03125 402.34375 707.03125H597.65625C613.8381953125 707.03125 626.953125 720.1461796875001 626.953125 736.328125V755.859375C626.953125 815.7806406249999 585.2203359375 866.09649609375 529.296875 879.364013671875V941.40625H822.265625V879.364013671875C766.3421640625 866.09649609375 724.609375 815.7806406249999 724.609375 755.859375V736.328125C724.609375 720.1461796875001 737.7243046875001 707.03125 753.90625 707.03125H949.21875C965.4006953125 707.03125 978.515625 720.1461796875001 978.515625 736.328125V755.859375C978.515625 815.7806406249999 936.7828359375 866.09649609375 880.859375 879.364013671875V941.40625H970.703125C986.8850703125 941.40625 1000 954.5211796875 1000 970.703125S986.8850703125 1000 970.703125 1000H29.296875C13.1149296875 1000 0 986.8850703125 0 970.703125S13.1149296875 941.40625 29.296875 941.40625zM29.296875 941.40625" />
    <glyph glyph-name="beach"
      unicode="&#xEA11;"
      horiz-adv-x="1000" d="M173.6093749999999 503.53125C192.9218749999999 540.0625 215.7343749999999 564.34375 243.5781249999999 581.75L447.4531249999999 171.6875C449.0468749999999 168.3749999999999 452.7656249999998 167.21875 455.7656249999998 169.15625L470.5468749999999 178.59375C473.4843749999999 180.34375 474.5156249999999 184.6875 472.7968749999998 187.9062499999999L270.0781249999999 595.75C296.0156249999999 606.9375 325.8593749999999 614.25 360.9843749999999 620.03125C361.0468749999999 619.9375 361.1718749999999 619.75 361.2343749999999 619.625C355.9843749999999 670.5 441.8281249999999 733.25 481.6093749999998 718.46875C481.2343749999998 718.8125 480.5468749999998 719.0625 480.1406249999998 719.46875C480.4218749999998 719.1875 480.8593749999998 719.125 481.1718749999998 718.875C459.5781249999998 759.03125 478.0156249999998 780.03125 485.3281249999998 802.78125C485.7968749999999 802.875 486.5468749999998 802.9375 486.9843749999999 802.96875C424.3593749999999 852.21875 235.1718749999999 864.75 191.8281249999999 797.1875C192.0468749999999 797.34375 192.3281249999999 797.34375 192.5781249999999 797.375C188.7656249999999 788.4375 180.2656249999999 779.3125 170.7968749999999 771.5L161.6406249999999 787.0625C159.7656249999999 790.1875 156.0156249999999 791.03125 153.2343749999999 788.90625L139.0781249999999 778.28125C136.2656249999999 776.1875 135.5781249999999 771.78125 137.3906249999999 768.65625L145.2031249999999 755.28125C138.8593749999999 753.03125 132.9531249999999 752.09375 128.3906249999999 753.4375C124.9218749999999 751.90625 122.6406249999999 749.03125 120.2031249999999 746.46875C121.8593749999999 748.1875 122.9218749999999 750.4375 125.0781249999999 751.71875C55.5468749999999 723.15625 4.2343749999999 570.15625 16.6406249999999 468.3125C16.7656249999999 468.90625 17.1718749999999 469.5 17.2656249999999 470.1875C17.2031249999999 468.65625 16.7656249999999 467.375 16.7656249999999 465.9687499999999C26.0156249999999 464.8437499999999 38.0468749999999 448.28125 40.9843749999999 432.3124999999999C41.4531249999999 446.8437499999999 42.9843749999999 460.9999999999999 45.3281249999999 474.3437499999999C42.7031249999999 459.8124999999999 41.0468749999999 445.4062499999999 41.0156249999999 432.0312499999999C48.7656249999999 462.1562499999998 125.1406249999999 504.0312499999999 173.6406249999999 503.1874999999999M747.0781249999999 427.53125L747.0156249999999 427.3750000000001L610.703125 416.53125L433.171875 531.25L393.265625 478.78125L600.265625 344.5312500000001H600.296875L734.984375 355.3750000000001L953.4843750000002 237.0937500000001L983.3593750000002 297.7500000000001L747.0781249999999 427.53125zM731.8906249999999 319L731.8281249999999 319.3437499999999L602.8906249999999 312.9062499999999L368.6093749999999 461.53125L330.2343749999999 415.65625L423.1093749999999 356.8125L312.8281249999999 236.15625L356.2656249999999 198.5625L472.3281249999999 325.59375L584.7656249999999 254.34375L584.796875 254.25L717.7656249999999 260.78125L918.9531249999998 156.0625L944.8281249999998 206.65625L732.1406249999999 319.5L731.8906249999999 319zM378.4531249999999 502.09375C405.953125 502.09375 428.203125 525.03125 428.203125 553.0625C428.203125 581.09375 405.953125 603.90625 378.4531249999999 603.90625C350.9218749999999 603.90625 328.6093749999999 581.125 328.6093749999999 553.0625C328.6093749999999 525.03125 350.9218749999999 502.09375 378.4531249999999 502.09375z" />
    <glyph glyph-name="bed"
      unicode="&#xEA12;"
      horiz-adv-x="1000" d="M34.09375 833.8125H36.875H47H50.34375C56.9375 833.8125 63.0625 832.46875 68.84375 830.4375C75.15625 828.375 80.75 825.5 85.78125 821.3125C90.8125 817.53125 94.53125 812.375 98 806.65625C101.15625 800.71875 102.4375 794.03125 102.4375 786.3125V424.34375H897.53125V649.3125C897.53125 656.625 899.1875 663.09375 902.46875 669.375C905.5625 675.40625 909.7812500000002 680.625 914.6562500000002 685.1875C919.8437500000002 689.5 925.09375 693.0625 931.5625000000002 695.5625C937.8750000000002 697.75 944.1250000000002 699 950.5625000000002 699C956.0937500000002 699 961.9375000000002 697.9375 967.5000000000002 695.84375C973.3437500000002 693.78125 978.5625000000002 690.75 983.3750000000002 687.3125C988.3437500000002 683.875 992.4375000000002 679.40625 995.5625000000002 673.90625C998.75 668.34375 1000 662.65625 1000 656.65625V166.1874999999999H900.96875V320.09375H105.375V166.1874999999999H0V792.9375C0 802.8125 4.03125 811.0625 11.65625 818.1875C19.71875 825.28125 27.15625 830.4375 34.09375 833.8125zM139.84375 520.15625C139.84375 525.75 141.0625 531.46875 143.375 537.125C145.71875 542.625 148.75 547.59375 152.6875 552.21875C156.46875 556.4375 161.0625 559.96875 166.46875 562.78125C171.6875 565.3125 177.3125 566.6875 183.15625 566.6875H323.8125V657.1875C323.8125 662.375 325.125 667.28125 327.875 671.71875C330.6562500000001 676.125 334.2812500000001 680 338.4687500000001 683.28125C342.6562500000001 686.5 347.40625 689.375 352.7500000000001 691.3125C357.5937500000001 693.28125 362.8437500000001 694.28125 367.7812500000001 694.28125C371.1250000000001 694.28125 375.5625000000001 693.40625 380.0625000000001 691.8125C384.6875000000001 690.40625 389.0000000000001 688.34375 392.7812500000001 685.34375C396.8437500000001 682.40625 400.2187500000001 679.125 402.8750000000001 675.0624999999999C405.5937500000001 670.8437499999999 406.8750000000001 666.7812499999999 406.8750000000001 661.8124999999999V509.7187499999999C406.8750000000001 506.1874999999999 405.8125000000001 502.7812499999999 403.5000000000001 499.0312499999999C400.9062500000001 495.3749999999999 398.2812500000001 492.1562499999999 394.9687500000001 489.0312499999999C391.9375000000001 486.0625 388.6250000000001 483.5937499999999 384.7812500000001 481.4687499999999C381.4062500000001 479.2187499999999 377.9687500000001 478.4374999999999 374.9687500000001 478.4374999999999H178.9375C168.4375 478.4374999999999 158.84375 482.6562499999999 151.6875 491.8124999999999C144 500.5 139.84375 510.125 139.84375 520.15625zM142.625 667.75C142.625 679.96875 144.75 691.625 149.34375 702.6875C153.96875 713.46875 160.40625 722.78125 168.4375 731.09375C176.4375 739.3125 185.625 745.75 195.8125 750.09375C206.09375 755.0625 217.40625 757.375 229.1875 757.375C242.25 757.375 253.625 755.0625 264.46875 750.09375C275.09375 745.75 284.125 739.34375 291.75 731.09375C299.59375 722.8125 305.625 712.96875 309.65625 701.65625C314.03125 690.46875 316.0625 678.40625 316.0625 665.625C316.0625 652.65625 314.03125 640.71875 309.65625 629.84375C305.625 618.71875 299.625 609.25 291.75 601.03125C284.125 593.25 275.21875 587.1875 264.875 582.75C254.15625 578.25 242.96875 575.96875 229.71875 575.96875C217.875 575.96875 206.09375 578.25 195.78125 582.84375C185.59375 587.65625 175.75 594.125 168 602.1875C160 610.4375 153.875 620.09375 149.3125 631.03125C144.75 642.25 142.625 654.375 142.625 667.75zM422.03125 692.03125H785.625C792.46875 692.03125 800.125 690.4375 808.21875 686.8125C816.09375 683.375 823.4374999999999 678.40625 830.2499999999999 672.65625C836.8749999999999 666.71875 842.4687499999999 660.03125 846.6874999999999 652.5C851.1249999999999 644.625 853.2187499999999 636.5625 853.2187499999999 628.34375V481.625H422.03125V692.03125z" />
    <glyph glyph-name="business-center"
      unicode="&#xEA13;"
      horiz-adv-x="1000" d="M583.984375 708.96875V791H416.015625V708.96875H583.984375zM833.984375 708.96875C878.9218749999999 708.96875 916.015625 669.90625 916.015625 624.96875V499.9687499999999C916.015625 455.03125 878.890625 415.96875 833.984375 415.96875H583.984375V499.9687499999999H416.015625V415.96875H166.015625C119.140625 415.96875 83.984375 453.09375 83.984375 499.9687499999999V624.96875C83.984375 669.90625 121.109375 708.96875 166.015625 708.96875H332.046875V791L416.046875 875H582.078125L666.0781249999999 791V708.96875H834.0468749999999zM416.015625 333.96875H583.9843750000001V375H875.0156250000001V208.96875C875.0156250000001 162.09375 837.8906250000002 124.9687500000001 791.0156250000002 124.9687500000001H208.9843750000002C162.1093750000002 124.9687500000001 124.9843750000002 162.09375 124.9843750000002 208.96875V375H416.0156250000003V333.96875z" />
    <glyph glyph-name="calculator"
      unicode="&#xEA14;"
      horiz-adv-x="928.5714285714286" d="M214.2857142857143 142.8571428571429C214.2857142857143 182.4642857142858 182.4642857142857 214.2857142857142 142.8571428571429 214.2857142857142S71.4285714285714 182.4642857142858 71.4285714285714 142.8571428571429S103.25 71.4285714285715 142.8571428571429 71.4285714285715S214.2857142857143 103.2499999999999 214.2857142857143 142.8571428571429zM428.5714285714286 142.8571428571429C428.5714285714286 182.4642857142858 396.75 214.2857142857142 357.1428571428572 214.2857142857142S285.7142857142857 182.4642857142858 285.7142857142857 142.8571428571429S317.5357142857143 71.4285714285715 357.1428571428572 71.4285714285715S428.5714285714286 103.2499999999999 428.5714285714286 142.8571428571429zM214.2857142857143 357.1428571428571C214.2857142857143 396.75 182.4642857142857 428.5714285714286 142.8571428571429 428.5714285714286S71.4285714285714 396.75 71.4285714285714 357.1428571428571S103.25 285.7142857142857 142.8571428571429 285.7142857142857S214.2857142857143 317.5357142857142 214.2857142857143 357.1428571428571zM642.8571428571429 142.8571428571429C642.8571428571429 182.4642857142858 611.0357142857143 214.2857142857142 571.4285714285714 214.2857142857142S500 182.4642857142858 500 142.8571428571429S531.8214285714286 71.4285714285715 571.4285714285714 71.4285714285715S642.8571428571429 103.2499999999999 642.8571428571429 142.8571428571429zM428.5714285714286 357.1428571428571C428.5714285714286 396.75 396.75 428.5714285714286 357.1428571428572 428.5714285714286S285.7142857142857 396.75 285.7142857142857 357.1428571428571S317.5357142857143 285.7142857142857 357.1428571428572 285.7142857142857S428.5714285714286 317.5357142857142 428.5714285714286 357.1428571428571zM214.2857142857143 571.4285714285714C214.2857142857143 611.0357142857142 182.4642857142857 642.8571428571429 142.8571428571429 642.8571428571429S71.4285714285714 611.0357142857142 71.4285714285714 571.4285714285714S103.25 500 142.8571428571429 500S214.2857142857143 531.8214285714286 214.2857142857143 571.4285714285714zM642.8571428571429 357.1428571428571C642.8571428571429 396.75 611.0357142857143 428.5714285714286 571.4285714285714 428.5714285714286S500 396.75 500 357.1428571428571S531.8214285714286 285.7142857142857 571.4285714285714 285.7142857142857S642.8571428571429 317.5357142857142 642.8571428571429 357.1428571428571zM428.5714285714286 571.4285714285714C428.5714285714286 611.0357142857142 396.75 642.8571428571429 357.1428571428572 642.8571428571429S285.7142857142857 611.0357142857142 285.7142857142857 571.4285714285714S317.5357142857143 500 357.1428571428572 500S428.5714285714286 531.8214285714286 428.5714285714286 571.4285714285714zM857.1428571428571 142.8571428571429V357.1428571428571C857.1428571428571 396.2142857142858 824.7857142857143 428.5714285714286 785.7142857142858 428.5714285714286V428.5714285714286C746.6428571428571 428.5714285714286 714.2857142857143 396.2142857142858 714.2857142857143 357.1428571428571V142.8571428571429C714.2857142857143 103.7857142857142 746.6428571428571 71.4285714285715 785.7142857142858 71.4285714285715V71.4285714285715C824.7857142857143 71.4285714285715 857.1428571428571 103.7857142857142 857.1428571428571 142.8571428571429zM642.8571428571429 571.4285714285714C642.8571428571429 611.0357142857142 611.0357142857143 642.8571428571429 571.4285714285714 642.8571428571429S500 611.0357142857142 500 571.4285714285714S531.8214285714286 500 571.4285714285714 500S642.8571428571429 531.8214285714286 642.8571428571429 571.4285714285714zM857.1428571428571 750V892.8571428571429C857.1428571428571 912.3928571428572 840.9642857142858 928.5714285714286 821.4285714285714 928.5714285714286H107.1428571428571C87.6071428571429 928.5714285714286 71.4285714285714 912.3928571428572 71.4285714285714 892.8571428571429V750C71.4285714285714 730.4642857142858 87.6071428571429 714.2857142857142 107.1428571428571 714.2857142857142H821.4285714285714C840.9642857142858 714.2857142857142 857.1428571428571 730.4642857142858 857.1428571428571 750zM857.1428571428571 571.4285714285714C857.1428571428571 611.0357142857142 825.3214285714287 642.8571428571429 785.7142857142858 642.8571428571429S714.2857142857143 611.0357142857142 714.2857142857143 571.4285714285714S746.1071428571428 500 785.7142857142858 500S857.1428571428571 531.8214285714286 857.1428571428571 571.4285714285714zM928.5714285714286 928.5714285714286V71.4285714285715C928.5714285714286 32.3571428571428 896.2142857142858 0 857.1428571428571 0H71.4285714285714C32.3571428571429 0 0 32.3571428571428 0 71.4285714285715V928.5714285714286C0 967.6428571428572 32.3571428571429 1000 71.4285714285714 1000H857.1428571428571C896.2142857142858 1000 928.5714285714286 967.6428571428572 928.5714285714286 928.5714285714286z" />
    <glyph glyph-name="calendar"
      unicode="&#xEA15;"
      horiz-adv-x="1000" d="M916.6875 906.25H781.25V968.75C781.25 986.03125 767.28125 1000 750 1000S718.75 986.03125 718.75 968.75V906.25H531.25V968.75C531.25 986.03125 517.25 1000 500 1000S468.75 986.03125 468.75 968.75V906.25H281.25V968.75C281.25 986.03125 267.25 1000 250 1000S218.75 986.03125 218.75 968.75V906.25H83.34375C37.3125 906.25 0 868.96875 0 822.9375V83.3437499999999C0 37.3125 37.3125 0 83.34375 0H916.6875000000002C962.7187500000002 0 1000 37.3125 1000 83.34375V822.9375000000001C1000 868.9687500000001 962.71875 906.2500000000002 916.6875 906.2500000000002zM937.5 83.34375C937.5 71.8437500000001 928.15625 62.5 916.6875 62.5H83.3437499999999C71.8437499999999 62.5 62.4999999999999 71.84375 62.4999999999999 83.34375V822.9375000000001C62.4999999999999 834.4062500000001 71.8437499999999 843.7500000000001 83.3437499999999 843.7500000000001H218.75V781.2500000000001C218.75 763.9687500000001 232.75 750.0000000000001 250 750.0000000000001S281.25 763.9687500000001 281.25 781.2500000000001V843.7500000000001H468.7499999999999V781.2500000000001C468.7499999999999 763.9687500000001 482.7499999999999 750.0000000000001 499.9999999999999 750.0000000000001S531.25 763.9687500000001 531.25 781.2500000000001V843.7500000000001H718.75V781.2500000000001C718.75 763.9687500000001 732.71875 750.0000000000001 750 750.0000000000001S781.25 763.9687500000001 781.25 781.2500000000001V843.7500000000001H916.6875C928.15625 843.7500000000001 937.5 834.4062500000001 937.5 822.9375000000001V83.34375zM218.75 625H343.75V531.25H218.75zM218.75 468.75H343.75V375H218.75zM218.75 312.5H343.75V218.75H218.75zM437.5 312.5H562.5V218.75H437.5zM437.5 468.75H562.5V375H437.5zM437.5 625H562.5V531.25H437.5zM656.25 312.5H781.25V218.75H656.25zM656.25 468.75H781.25V375H656.25zM656.25 625H781.25V531.25H656.25z" />
    <glyph glyph-name="calendar2"
      unicode="&#xEA16;"
      horiz-adv-x="928.5714285714286" d="M71.4285714285714 71.4285714285715H232.1428571428572V232.1428571428571H71.4285714285714V71.4285714285715zM267.8571428571429 71.4285714285715H446.4285714285715V232.1428571428571H267.8571428571429V71.4285714285715zM71.4285714285714 267.8571428571429H232.1428571428572V446.4285714285715H71.4285714285714V267.8571428571429zM267.8571428571429 267.8571428571429H446.4285714285715V446.4285714285715H267.8571428571429V267.8571428571429zM71.4285714285714 482.1428571428571H232.1428571428572V642.8571428571429H71.4285714285714V482.1428571428571zM482.1428571428572 71.4285714285715H660.7142857142858V232.1428571428571H482.1428571428572V71.4285714285715zM267.8571428571429 482.1428571428571H446.4285714285715V642.8571428571429H267.8571428571429V482.1428571428571zM696.4285714285714 71.4285714285715H857.1428571428571V232.1428571428571H696.4285714285714V71.4285714285715zM482.1428571428572 267.8571428571429H660.7142857142858V446.4285714285715H482.1428571428572V267.8571428571429zM285.7142857142857 750V910.7142857142856C285.7142857142857 920.2142857142856 277.3571428571429 928.5714285714286 267.8571428571429 928.5714285714286H232.1428571428572C222.6428571428572 928.5714285714286 214.2857142857143 920.2142857142856 214.2857142857143 910.7142857142856V750C214.2857142857143 740.5 222.6428571428572 732.1428571428571 232.1428571428572 732.1428571428571H267.8571428571429C277.3571428571429 732.1428571428571 285.7142857142857 740.5 285.7142857142857 750zM696.4285714285714 267.8571428571429H857.1428571428571V446.4285714285715H696.4285714285714V267.8571428571429zM482.1428571428572 482.1428571428571H660.7142857142858V642.8571428571429H482.1428571428572V482.1428571428571zM696.4285714285714 482.1428571428571H857.1428571428571V642.8571428571429H696.4285714285714V482.1428571428571zM714.2857142857143 750V910.7142857142856C714.2857142857143 920.2142857142856 705.9285714285713 928.5714285714286 696.4285714285714 928.5714285714286H660.7142857142858C651.2142857142858 928.5714285714286 642.8571428571429 920.2142857142856 642.8571428571429 910.7142857142856V750C642.8571428571429 740.5 651.2142857142858 732.1428571428571 660.7142857142858 732.1428571428571H696.4285714285714C705.9285714285713 732.1428571428571 714.2857142857143 740.5 714.2857142857143 750zM928.5714285714286 785.7142857142858V71.4285714285715C928.5714285714286 32.3571428571428 896.2142857142858 0 857.1428571428571 0H71.4285714285714C32.3571428571429 0 0 32.3571428571428 0 71.4285714285715V785.7142857142858C0 824.7857142857142 32.3571428571429 857.1428571428571 71.4285714285714 857.1428571428571H142.8571428571429V910.7142857142856C142.8571428571429 959.8214285714286 183.0357142857143 1000 232.1428571428572 1000H267.8571428571429C316.9642857142857 1000 357.1428571428572 959.8214285714286 357.1428571428572 910.7142857142856V857.1428571428571H571.4285714285714V910.7142857142856C571.4285714285714 959.8214285714286 611.6071428571429 1000 660.7142857142858 1000H696.4285714285714C745.5357142857143 1000 785.7142857142858 959.8214285714286 785.7142857142858 910.7142857142856V857.1428571428571H857.1428571428571C896.2142857142858 857.1428571428571 928.5714285714286 824.7857142857142 928.5714285714286 785.7142857142858z" />
    <glyph glyph-name="cancel"
      unicode="&#xEA17;"
      horiz-adv-x="999.9971291920974" d="M966.1962369450011 803.030998983734L663.202558464003 500.0057416158055L966.196236945001 196.9948382873909C1011.2650502104302 151.9088001745452 1011.2650502104302 78.8754471283309 966.196236945001 33.789409015485C943.6776197557516 11.2707918262356 914.1542312837678 0.0028708079026 884.6451968512979 0.0028708079026C855.087358684481 0.0028708079026 825.5610994045944 11.253566978819 803.0597070627616 33.789409015485L500.0000000000001 336.834762038733L196.9632594004605 33.7922798233878C174.4475130191139 11.2736626341385 144.9212537392273 0.0057416158055 115.3863820356325 0.0057416158055C85.8601227557459 0.0057416158055 56.3539591311787 11.2564377867219 33.8181170945127 33.7922798233878C-11.2506961709164 78.8582222809142 -11.2506961709164 151.8944461350313 33.8181170945127 196.9977090952937L336.8031831518026 500.0086124237084L33.8008922470962 803.030998983734C-11.267921018333 848.0998122491632 -11.267921018333 921.150390142794 33.8008922470962 966.2192034082232C78.8610930888171 1011.2535669788192 151.8686088639065 1011.2535669788192 196.9460345530439 966.2192034082232L499.9971291920972 663.1939460402946L803.0252573679286 966.2192034082232C848.1112954807742 1011.2535669788192 921.127423679572 1011.2535669788192 966.1790120975846 966.2192034082232C1011.2650502104302 921.150390142794 1011.2650502104302 848.0998122491632 966.1962369450011 803.030998983734z" />
    <glyph glyph-name="caret-down"
      unicode="&#xEA18;"
      horiz-adv-x="571.4285714285714" d="M571.4285714285714 607.1428571428571C571.4285714285714 597.6428571428571 567.5357142857143 588.7142857142858 560.8214285714286 582.0357142857142L310.8214285714286 332.0357142857144C304.1428571428572 325.3571428571428 295.1785714285714 321.4285714285715 285.7142857142857 321.4285714285715S267.2857142857143 325.3214285714288 260.6071428571429 332.0357142857144L10.6071428571428 582.0357142857142C3.9285714285714 588.7142857142858 0 597.6785714285714 0 607.1428571428571C0 626.6785714285714 16.1785714285714 642.8571428571429 35.7142857142857 642.8571428571429H535.7142857142857C555.25 642.8571428571429 571.4285714285713 626.6785714285714 571.4285714285713 607.1428571428571z" />
    <glyph glyph-name="check-circle"
      unicode="&#xEA19;"
      horiz-adv-x="843.75" d="M709.8125 590.40625C709.8125 599.90625 706.46875 609.375 699.7812499999999 616.0625L648.9999999999999 666.28125C642.3125 672.96875 633.3749999999999 676.875 623.875 676.875S605.46875 672.96875 598.75 666.28125L371.0625000000001 439.15625L244.9375000000002 565.28125C238.2500000000001 571.96875 229.3125000000002 575.875 219.8125000000002 575.875S201.4062500000001 571.96875 194.6875000000001 565.28125L143.9062500000001 515.0625C137.2187500000001 508.375 133.8750000000001 498.8750000000001 133.8750000000001 489.4062500000001S137.2187500000001 471.0000000000001 143.9062500000001 464.2812500000001L345.9062500000001 262.28125C352.5937500000002 255.5937500000001 362.0937500000002 251.6875000000001 371.0312500000002 251.6875000000001C380.5312500000002 251.6875000000001 390.0000000000001 255.5937500000001 396.6875000000001 262.28125L699.6875 565.28125C706.375 571.96875 709.7187500000001 580.90625 709.7187500000001 590.40625zM850.4375 500C850.4375 263.4062500000001 658.4687499999999 71.4375 421.8750000000001 71.4375S-6.6875000000001 263.4062500000001 -6.6875000000001 500.0000000000001S185.28125 928.5625000000002 421.8750000000001 928.5625000000002S850.4375 736.59375 850.4375 500.0000000000001z" />
    <glyph glyph-name="check"
      unicode="&#xEA1A;"
      horiz-adv-x="1000" d="M366.2083333333334 326.1666666666667L807.625 767.5833333333333L866.2083333333334 709L366.2083333333334 209L133.7916666666666 441.4166666666667L192.375 499.9999999999999z" />
    <glyph glyph-name="check_box"
      unicode="&#xEA1B;"
      horiz-adv-x="1000" d="M416.0208333333333 291.0000000000001L791.0208333333333 666.0000000000001L732.4375 726.5416666666667L416.0208333333334 410.1250000000001L267.5625 558.5833333333335L208.9791666666667 500.0000000000001zM791.0208333333333 875C837.8958333333333 875 875.0208333333333 835.9166666666667 875.0208333333333 791V208.9583333333334C875.0208333333333 164.0416666666668 837.8958333333333 124.9583333333335 791.0208333333333 124.9583333333335H208.9791666666667C162.1041666666667 124.9583333333335 124.9791666666667 164.0416666666668 124.9791666666667 208.9583333333334V791C124.9791666666667 835.9166666666667 162.1041666666667 875 208.9791666666667 875H791.0208333333333z" />
    <glyph glyph-name="check_box_outline_blank"
      unicode="&#xEA1C;"
      horiz-adv-x="1000" d="M791.0208333333333 875C835.9374999999999 875 875.0208333333333 835.9166666666667 875.0208333333333 791V208.9583333333334C875.0208333333333 164.0416666666668 835.9374999999999 124.9583333333335 791.0208333333333 124.9583333333335H208.9791666666667C164.0625000000001 124.9583333333335 124.9791666666667 164.0416666666668 124.9791666666667 208.9583333333334V791C124.9791666666667 835.9166666666667 164.0625000000001 875 208.9791666666667 875H791.0208333333333zM791.0208333333333 791H208.9791666666667V208.9583333333334H791.0208333333333V791z" />
    <glyph glyph-name="class"
      unicode="&#xEA1D;"
      horiz-adv-x="1000" d="M265.25 714.78125C214.75 701.625 162.96875 731.9375 149.78125 782.4375S166.9375 884.71875 217.4375 897.875C267.90625 911.0625 319.6875 880.71875 332.875 830.25C346.0625 779.75 315.71875 727.96875 265.25 714.78125zM492.2187499999999 188.5L492.2187499999999 188.5C460.9999999999999 180.875 428.03125 197.28125 415.5 226.6875L249.875 613.375C242.9375 629.625 242.78125 647.65625 249.40625 664.09375C256.03125 680.5625 268.65625 693.46875 284.9062500000001 700.375C287.8750000000001 701.65625 290.9687500000001 702.71875 294.1250000000001 703.53125C325.7187500000001 711.78125 359.125 695.375 371.9062500000001 665.40625L439.5937500000001 507.7500000000001L485.1562500000001 400.84375L515.125 331.1875000000001L672.5 372.2812500000001C698.125 378.9687500000001 726 369.2500000000001 741.9375 348.0937500000001L742.1875 347.8125000000001C743.46875 346.2812500000001 744.15625 345.0937500000001 752.28125 330.5937500000001C762.875 311.7500000000001 787.65625 267.5937500000001 843.8125 169.4375000000001C852.25 154.6875000000001 859.71875 140.0000000000001 858.1875 122.3437500000001C856.65625 104.6562500000001 848.3125 88.6875 834.8125 77.3125000000001C827.28125 70.9687500000001 818.59375 66.5000000000001 809 63.9687500000001C784.3125 57.5312500000001 757.75 65.9375000000001 741.375 85.4062500000001L740.78125 86.1250000000001L663.84375 232.9062500000001L497.2187499999999 189.4062500000001C495.6249999999999 189 494.0937499999999 188.71875 492.2187499999999 188.5zM141.8125 555.1875C146.53125 567.03125 155.625 576.3125 167.3125 581.28125C169.5 582.1875 171.71875 582.96875 173.9375 583.53125C196.65625 589.46875 220.71875 577.65625 229.90625 556.09375L410.90625 125.28125L583.78125 170.40625C612.15625 177.8124999999999 637.6875 164.1874999999999 644.5 138.0625C651.8125 110.03125 634.34375 85.375 613.46875 79.9375L395.1562500000001 22.90625C372.4062500000001 17 348.3750000000001 28.6875 339.2500000000001 50.125L142.125 518.6875C137.125 530.375 137.03125 543.34375 141.8125 555.1875z" />
    <glyph glyph-name="close"
      unicode="&#xEA1E;"
      horiz-adv-x="1000" d="M790.9999999999999 732.4166666666667L558.5833333333333 500L790.9999999999999 267.5833333333335L732.4166666666666 209.0000000000001L500 441.4166666666668L267.5833333333334 209.0000000000001L209.0000000000001 267.5833333333335L441.4166666666669 500L209.0000000000001 732.4166666666667L267.5833333333334 791L500 558.5833333333333L732.4166666666666 791z" />
    <glyph glyph-name="coffee"
      unicode="&#xEA1F;"
      horiz-adv-x="999.9538426032773" d="M127.2790214631896 43.3879529194552H263.4433417955229C265.3357950611588 31.5255019616892 275.1673205631204 22.2478652204015 287.5836602815603 22.2478652204015H597.1613201015464C609.6238172167091 22.2478652204015 619.4091853219479 31.4793445649665 621.3016385875837 43.3879529194552H757.4659589199171C780.4984998846066 43.3879529194552 799.1460881606279 62.0355411954764 799.1460881606279 85.068082160166H85.6450496192017C85.6450496192017 62.0355411954764 104.2926378952229 43.3879529194552 127.2790214631896 43.3879529194552zM963.1433187168246 471.7747519039925C928.43295638126 499.8846065081929 879.5522732517886 500.3461804754211 847.3805677359799 496.7920609277636C848.3037156704363 519.2245557350566 848.8114470343874 542.1647819063005 848.8114470343874 566.0281560120009H0.0692360950844C0.0692360950844 336.6258942995614 34.7795984306487 171.1054696515117 254.4426494345721 109.346872836372H594.4380336948998C681.4447265174244 133.7641357027463 739.1414724209556 174.7980613893376 777.4059543041774 229.3561043157166C860.766212785599 230.9716132010156 994.8534502654052 263.789522270944 999.884606508193 378.9060696976692C1002.0540041541658 429.3099469189937 981.0985460420034 457.2813293330256 963.1433187168246 471.7747519039925zM812.3471036233557 295.1765520424648C828.3175628894533 336.2104777290561 837.7798292176321 382.3678744518809 842.9956150473115 433.0948534502654C865.52042464805 436.7874451880914 904.3387952919458 439.1414724209555 923.9556888991463 423.1710131548581C927.5559658435266 420.2169397645972 938.7722132471732 411.077775213478 937.479806138934 381.5831987075929C934.8488345257329 321.9478421417032 860.812370182322 301.9155319639972 812.3471036233557 295.1765520424648zM345.8342949457652 598.2460189245326C345.8342949457652 598.2460189245326 507.3851834756522 610.1084698822986 433.3487191322412 746.3189476113547C373.8979921532427 855.6658204477267 387.4682667897533 919.8246018924532 463.5356565889685 977.7982921763212C463.5356565889685 977.7982921763212 214.3780290791602 914.331871682437 359.6815139626127 717.9321486268175C412.9933071774754 632.3563351027002 345.8342949457652 598.2460189245326 345.8342949457652 598.2460189245326zM454.719593814909 609.1391645511193C454.719593814909 609.1391645511193 584.1449342257099 636.4181860143087 513.7087468266791 740.5031156242787C488.1375490422342 785.6450496192015 523.4018001384725 801.7539810754673 523.4018001384725 801.7539810754673S440.0876990537736 799.1230094622663 475.259635356566 727.532887145165C503.4156473574891 669.9746134318025 495.061158550658 637.2951765520424 454.719593814909 609.1391645511193z" />
    <glyph glyph-name="coins"
      unicode="&#xEA20;"
      horiz-adv-x="1000" d="M890.625 281.25H507.9374999999999C519.15625 300.59375 527.7499999999999 321.5625 533.4374999999999 343.75H890.6249999999999C907.9062499999998 343.75 921.8749999999998 329.78125 921.8749999999998 312.5C921.8749999999998 295.25 907.9062499999998 281.25 890.6249999999999 281.25zM890.625 375H539.5C540.78125 385.25 541.65625 395.65625 541.65625 406.25C541.65625 416.875 540.78125 427.25 539.5 437.5H890.625C907.90625 437.5 921.875 423.53125 921.875 406.25C921.875 389 907.90625 375 890.625 375zM890.625 468.75H533.4375C527.71875 490.9375 519.15625 511.90625 507.9375000000001 531.25H890.625C907.90625 531.25 921.875 517.28125 921.875 500C921.875 482.75 907.90625 468.75 890.625 468.75zM890.625 562.5H486.625C466.3124999999999 587.84375 441.21875 609.15625 412.59375 625H890.625C907.90625 625 921.875 611.03125 921.875 593.75C921.875 576.5 907.90625 562.5 890.625 562.5zM890.625 656.25H390.625C373.34375 656.25 359.375 670.25 359.375 687.5C359.375 704.78125 373.34375 718.75 390.625 718.75H890.625C907.90625 718.75 921.875 704.78125 921.875 687.5C921.875 670.25 907.90625 656.25 890.625 656.25zM890.625 750H390.625C373.34375 750 359.375 764 359.375 781.25C359.375 798.53125 373.34375 812.5 390.625 812.5H890.625C907.90625 812.5 921.875 798.53125 921.875 781.25C921.875 764 907.90625 750 890.625 750zM515.625 406.25C515.625 285.4375 417.65625 187.5 296.875 187.5S78.125 285.4375 78.125 406.25S176.0625 625 296.875 625C417.65625 625 515.625 527.0625 515.625 406.25zM374.3125 382.46875C371.15625 389.9375 367.09375 396.4375 362 401.96875S351.125 412.25 344.625 416.21875C338.125 420.1874999999999 331.5 423.7187499999999 324.71875 426.875C317.9375 430 311.3125 432.9375 304.8125 435.75C298.3125 438.5312499999999 292.46875 441.5312499999999 287.34375 444.7187499999999S278.09375 451.5625 275.03125 455.65625S270.4375 464.59375 270.4375 470.21875C270.4375 473.96875 271.125 477.5312500000001 272.46875 480.90625C273.84375 484.25 275.9062499999999 487.15625 278.7187499999999 489.5625C281.5 491.9375 285 493.84375 289.1562499999999 495.1875C293.3124999999999 496.5625 298.2187499999999 497.2187500000001 303.8124999999999 497.2187500000001C310.9687499999999 497.2187500000001 317.5312499999999 496.375 323.5312499999999 494.6250000000001C329.4999999999999 492.8437500000001 334.7812499999999 490.9375000000001 339.3437499999999 488.7812500000001C343.9062499999999 486.65625 347.7499999999999 484.6875 350.8749999999999 482.875S356.2812499999999 480.1875000000001 357.7187499999999 480.1875000000001S360.2812499999999 480.5625000000001 361.1249999999999 481.3437500000001C361.9374999999999 482.125 362.6249999999999 483.3437500000001 363.0624999999999 485.0625000000001C363.5312499999999 486.75 363.8124999999999 488.9062500000001 364.0312499999999 491.5000000000001C364.2187499999999 494.1250000000001 364.3124999999999 497.3437500000001 364.3124999999999 501.1250000000001C364.3124999999999 504.5000000000001 364.2499999999999 507.3437500000001 364.1249999999999 509.5937500000001S363.7499999999999 513.78125 363.4687499999999 515.28125C363.1249999999999 516.78125 362.7499999999999 518 362.3124999999999 518.90625C361.8124999999999 519.8125 360.9687499999999 520.90625 359.6562499999998 522.1875S355.6874999999998 525.125 351.6562499999998 527.03125C347.6249999999998 528.96875 342.9999999999999 530.71875 337.8124999999998 532.25C332.5937499999998 533.8125 326.9999999999998 535.03125 321.0312499999998 535.9375C319.8124999999998 536.125 318.5624999999998 536.0625 317.3437499999998 536.21875V568.5312500000001H286.5937499999998V536.21875C280.9374999999998 535.4687500000001 275.4687499999998 534.34375 270.1562499999998 532.8125C259.8124999999998 529.8125 250.8437499999998 525.3125 243.2187499999998 519.2500000000001S229.5312499999998 505.5625000000001 225.0624999999998 496.4375000000001C220.5624999999998 487.2500000000001 218.3437499999998 476.6250000000001 218.3437499999998 464.5312500000001C218.3437499999998 454.0000000000001 219.9062499999998 444.9375000000001 222.9999999999998 437.4062500000001S230.1874999999998 423.3125000000001 235.2187499999998 417.7812500000001S245.9062499999998 407.5312500000001 252.2812499999998 403.5625000000001C258.6562499999999 399.5625000000001 265.2499999999998 396.0312500000001 271.9999999999998 392.9062500000001S285.3437499999998 386.8437500000001 291.7187499999999 384.0312500000001S303.7812499999998 378.2187500000001 308.7812499999998 375.0625000000003C313.8124999999998 371.8437500000001 317.8749999999998 368.2187500000001 320.9999999999998 364.1250000000001C324.1249999999998 360.0000000000001 325.6874999999998 355.0937500000001 325.6874999999998 349.3750000000001C325.6874999999998 344.4062500000001 324.7812499999998 339.9062500000001 322.9687499999999 335.8437500000001S318.4999999999998 328.4375000000001 315.0624999999998 325.6875000000001S307.4374999999999 320.8437500000001 302.4999999999999 319.3437500000001C297.5312499999999 317.8437500000003 291.9687499999999 317.0937500000003 285.6874999999999 317.0937500000003C276.1874999999999 317.0937500000003 267.8124999999999 318.1562500000001 260.5937499999998 320.3125000000003S247.1562499999998 324.8437500000003 241.9374999999998 327.4687500000003C236.7187499999998 330.0625000000001 232.4687499999998 332.4062500000003 229.1562499999998 334.5937500000003C225.8437499999999 336.7187500000004 223.2812499999998 337.8125000000004 221.4374999999998 337.8125000000004C220.1249999999998 337.8125000000004 218.9687499999998 337.4375000000003 218.0312499999998 336.7500000000004C217.0312499999998 336.0312500000004 216.2499999999998 334.8125000000004 215.6874999999998 333.1250000000004C215.0937499999998 331.4062500000004 214.6874999999998 329.2187500000004 214.4062499999998 326.4687500000004S213.9999999999998 320.3437500000003 213.9999999999998 316.3125000000004C213.9999999999998 310.3125000000004 214.3749999999998 305.7187500000004 215.0624999999998 302.5312500000004C215.7812499999998 299.3125000000004 216.9999999999998 296.8750000000004 218.6874999999998 295.2187500000004S223.1249999999998 291.6250000000004 226.9687499999998 289.4062500000004S235.5937499999998 285.1250000000004 241.3124999999998 283.1250000000004C247.0312499999998 281.1562500000004 253.6562499999998 279.4375000000004 261.1249999999998 278.0000000000003C268.5937499999998 276.5937500000003 276.7187499999998 275.9062500000003 285.4374999999998 275.9062500000003C285.8124999999999 275.9062500000003 286.1562499999998 275.9687500000003 286.5624999999998 275.9687500000003V245.8750000000003H317.2812499999998V280.0000000000001C318.7499999999999 280.3750000000001 320.3124999999998 280.5625000000001 321.7499999999999 280.9687500000001C333.0624999999999 284.3437500000001 342.9687499999999 289.4062500000001 351.4374999999998 296.09375S366.5937499999998 311.1250000000001 371.5624999999998 321.15625C376.4999999999998 331.1875000000001 378.9374999999999 342.8125000000001 378.9374999999999 356.09375C378.9687499999998 366.1875 377.4062499999999 374.96875 374.3124999999999 382.46875zM486.625 250H890.625C907.90625 250 921.875 236.03125 921.875 218.75C921.875 201.5 907.90625 187.5 890.625 187.5H412.59375C441.21875 203.34375 466.3124999999999 224.65625 486.625 250z" />
    <glyph glyph-name="credit-card-alt"
      unicode="&#xEA21;"
      horiz-adv-x="1285.7142857142858" d="M0 160.7142857142857V500H1285.7142857142858V160.7142857142857C1285.7142857142858 111.6071428571428 1245.5357142857142 71.4285714285715 1196.4285714285716 71.4285714285715H89.2857142857143C40.1785714285714 71.4285714285715 0 111.6071428571428 0 160.7142857142857zM357.1428571428572 285.7142857142857V214.2857142857142H571.4285714285714V285.7142857142857H357.1428571428572zM142.8571428571429 285.7142857142857V214.2857142857142H285.7142857142857V285.7142857142857H142.8571428571429zM1196.4285714285716 928.5714285714286C1245.5357142857142 928.5714285714286 1285.7142857142858 888.3928571428571 1285.7142857142858 839.2857142857142V714.2857142857142H0V839.2857142857142C0 888.3928571428571 40.1785714285714 928.5714285714286 89.2857142857143 928.5714285714286H1196.4285714285716z" />
    <glyph glyph-name="deals"
      unicode="&#xEA22;"
      horiz-adv-x="1000" d="M500 931.71875L554.875 826.28125L639.625 909.59375L659.1875 792.375L765.5625 845.4375L747.96875 727.90625L865.5 745.53125L812.46875 639.125L929.65625 619.59375L846.34375 534.8125L951.75 479.96875L846.34375 425.09375L929.65625 340.34375L812.46875 320.8125L865.5 214.4375L747.96875 232L765.5625 114.5L659.1875 167.53125L639.625 50.3125L554.875 133.625L500 28.21875L445.15625 133.625L360.375 50.3125L340.8125 167.53125L234.4375 114.5L252.0625 232L134.5 214.4375L187.53125 320.8125L70.34375 340.34375L153.65625 425.09375L48.25 479.96875L153.65625 534.8125L70.34375 619.59375L187.53125 639.125L134.5 745.53125L252.0625 727.90625L234.4375 845.4375L340.8125 792.375L360.375 909.59375L445.15625 826.28125z" />
    <glyph glyph-name="delete"
      unicode="&#xEA23;"
      horiz-adv-x="1000" d="M638.1733044496489 637.6975995316159C625.2378524590166 637.6975995316159 614.7541007025764 627.2138454332553 614.7541007025764 614.2783957845434V171.6554449648712C614.7541007025764 158.729142857143 625.2378524590166 148.2362412177986 638.1733044496489 148.2362412177986C651.1087540983608 148.2362412177986 661.5925081967215 158.729142857143 661.5925081967215 171.6554449648712V614.2783957845434C661.5925081967215 627.2138454332553 651.1087540983608 637.6975995316159 638.1733044496489 637.6975995316159zM638.1733044496489 637.6975995316159M361.8267002341923 637.6975995316159C348.8912482435599 637.6975995316159 338.4074964871197 627.2138454332553 338.4074964871197 614.2783957845434V171.6554449648712C338.4074964871197 158.729142857143 348.8912482435599 148.2362412177986 361.8267002341923 148.2362412177986C374.7621498829042 148.2362412177986 385.2459039812649 158.729142857143 385.2459039812649 171.6554449648712V614.2783957845434C385.2459039812649 627.2138454332553 374.7621498829042 637.6975995316159 361.8267002341923 637.6975995316159zM361.8267002341923 637.6975995316159M160.4215480093679 702.2925199063232V125.2927400468384C160.4215480093679 91.188524590164 172.9270351288058 59.1609344262295 194.772761124122 36.1808407494145C216.5178571428574 13.1367096018736 246.7798618266981 0.0548899297423 278.4506744730682 0H721.5493278688526C753.2292903981266 0.0548899297424 783.491292740047 13.1367096018736 805.2272412177987 36.1808407494145C827.0729672131149 59.1609344262295 839.5784566744732 91.188524590164 839.5784566744732 125.2927400468384V702.2925199063232C883.0046112412178 713.8191592505855 911.1442482435596 755.772468384075 905.33518735363 800.3329929742389C899.516981264637 844.8843676814988 861.5614028103045 878.2109929742389 816.6258056206088 878.2201405152225H696.7213138173303V907.4941451990632C696.8585339578455 932.1117540983606 687.1249274004684 955.750512880562 669.6977470725996 973.141100702576C652.2705667447308 990.5225409836066 628.5952154566746 1000.2012587822014 603.9776065573772 1000H396.0223957845434C371.404786885246 1000.2012587822014 347.7294355971898 990.5225409836066 330.302255269321 973.141100702576C312.8750749414521 955.750512880562 303.1414683840751 932.1117540983606 303.2786908665106 907.4941451990632V878.2201405152225H183.3741967213116C138.438599531616 878.2109929742389 100.4830234192038 844.8843676814988 94.6648126463701 800.3329929742389C88.8557540983607 755.772468384075 116.9953911007027 713.8191592505855 160.4215480093678 702.2925199063232zM721.5493278688526 46.8384074941453H278.4506744730682C238.4093255269323 46.8384074941453 207.2599555035131 81.2353629976581 207.2599555035131 125.2927400468384V700.2341920374707H792.740049180328V125.2927400468384C792.740049180328 81.2353629976581 761.5906768149885 46.8384074941453 721.5493278688526 46.8384074941453zM350.1170983606559 907.4941451990632C349.9615784543328 919.6885971896957 354.7551967213117 931.425644028103 363.4093255269323 940.0340304449649C372.0543044496489 948.6424168618267 383.8187939110072 953.372 396.0223957845435 953.1615925058549H603.9776065573773C616.1812060889931 953.372 627.9456978922718 948.6424168618267 636.5906768149886 940.0340304449649C645.244805620609 931.4347915690867 650.0384238875879 919.6885971896957 649.8829063231852 907.4941451990632V878.2201405152225H350.1170983606559zM183.3741967213117 831.3817330210773H816.6258056206092C839.9077868852462 831.3817330210773 858.7803723653399 812.5091475409836 858.7803723653399 789.2271662763467S839.9077868852462 747.0725995316159 816.6258056206092 747.0725995316159H183.3741967213118C160.0922131147544 747.0725995316159 141.2196299765811 765.9451850117096 141.2196299765811 789.2271662763467S160.0922131147544 831.3817330210773 183.3741967213118 831.3817330210773zM183.3741967213117 831.3817330210773M500.0000023419204 637.6975995316159C487.0645503512882 637.6975995316159 476.580798594848 627.2138454332553 476.580798594848 614.2783957845434V171.6554449648712C476.580798594848 158.729142857143 487.0645503512882 148.2362412177986 500.0000023419204 148.2362412177986C512.9354519906325 148.2362412177986 523.4192060889932 158.729142857143 523.4192060889932 171.6554449648712V614.2783957845434C523.4192060889932 627.2138454332553 512.9354519906325 637.6975995316159 500.0000023419204 637.6975995316159zM500.0000023419204 637.6975995316159" />
    <glyph glyph-name="done"
      unicode="&#xEA24;"
      horiz-adv-x="1000" d="M366.2083333333334 324.2083333333335L807.625 767.5833333333333L866.2083333333334 709L366.2083333333334 209L133.7916666666666 441.4166666666667L190.4166666666666 499.9999999999999z" />
    <glyph glyph-name="edit"
      unicode="&#xEA25;"
      horiz-adv-x="1000" d="M939.9207069825438 371.6392618453865C926.1465473815462 371.6392618453865 914.9830511221946 360.4757630922694 914.9830511221946 346.7016059850373V125.2824962593516C914.9343428927682 83.9795037406483 881.4730760598505 50.508493765586 840.1700835411473 50.4695286783041H140.4447867830425C99.1417942643392 50.508493765586 65.6805249376559 83.9795037406483 65.6318192019951 125.2824962593516V775.1324812967581C65.6805249376559 816.4257331670823 99.1417942643392 849.8967431421446 140.4447867830425 849.9454488778055H361.8638940149627C375.6380536159602 849.9454488778055 386.8015498753118 861.1089476309227 386.8015498753118 874.8831047381547C386.8015498753118 888.6475211970074 375.6380536159602 899.8207605985037 361.8638940149627 899.8207605985037H140.4447867830425C71.6129613466335 899.7428304239402 15.8344376558604 843.9643092269326 15.7565074812968 775.1324812967581V125.2727556109726C15.8344376558604 56.4409276807979 71.6129613466335 0.6624064837905 140.4447867830425 0.5844763092269H840.1700835411473C909.0019089775562 0.6624064837905 964.7804326683294 56.4409276807979 964.858362842893 125.2727556109726V346.7016059850373C964.858362842893 360.4757630922692 953.6948640897756 371.6392618453864 939.9207069825438 371.6392618453864zM939.9207069825438 371.6392618453865M954.9807119700748 963.986518703242C911.1547319201997 1007.8124987531172 840.1018940149627 1007.8124987531172 796.2759114713217 963.986518703242L351.3725448877805 519.0831521197008C348.3235274314215 516.0341346633415 346.1219987531173 512.254518703242 344.972529925187 508.1047381546135L286.4664526184539 296.8847406483791C284.0603578553616 288.2247506234416 286.5054152119701 278.9510598503741 292.8567269326683 272.5900099750624C299.2177768079801 266.2387007481298 308.4914675810474 263.7936408977556 317.151457605985 266.1899950124689L528.3714551122195 324.7058129675811C532.5212356608479 325.8552842892768 536.300849127182 328.0568104738155 539.3498690773067 331.1058304239403L984.2434925187032 776.0189376558604C1028.0012855361597 819.8741421446385 1028.0012855361597 890.86853117207 984.2434925187032 934.7237381546136zM405.7093603491272 502.8736758104738L769.8283578553616 867.0024164588528L887.2593902743141 749.5713840399003L523.130649625935 385.4426433915212zM382.2523778054864 455.8038503740648L476.0705673316708 361.9759201995012L346.2973428927681 326.0208852867831zM948.9800885286784 811.2823416458853L922.532537406484 784.8347880299252L805.0917643391522 902.2755610972569L831.5490561097258 928.723114713217C855.892495012469 953.06655361596 895.3641284289279 953.06655361596 919.707567331671 928.723114713217L948.9800885286784 899.4603341645885C973.2845623441398 875.0876708229426 973.2845623441398 835.6452618453866 948.9800885286784 811.2823416458853zM948.9800885286784 811.2823416458853" />
    <glyph glyph-name="edit_location"
      unicode="&#xEA26;"
      horiz-adv-x="1000" d="M621.0833333333333 685.5416666666667C626.9583333333333 691.4166666666667 626.9583333333333 701.1666666666667 621.0833333333333 707.0416666666667L582 746.125C576.125 752 566.375 752 560.5 746.125L531.2083333333333 716.8333333333333L591.75 656.2916666666667zM435.5416666666667 500L574.2083333333333 638.6666666666667L513.6666666666665 699.2083333333333L375 560.5416666666667V500H435.5416666666667zM499.9999999999999 916C660.1666666666665 916 791 785.125 791 625C791 406.25 500.0000000000001 84 500.0000000000001 84S209.0000000000001 406.25 209.0000000000001 625C209.0000000000001 785.1666666666665 339.8750000000001 915.9999999999998 500.0000000000001 915.9999999999998z" />
    <glyph glyph-name="expand_less"
      unicode="&#xEA27;"
      horiz-adv-x="1000" d="M500 666L750 416L691.4166666666666 357.4166666666667L500 548.8333333333334L308.5833333333333 357.4166666666667L250 416z" />
    <glyph glyph-name="expand_more"
      unicode="&#xEA28;"
      horiz-adv-x="1000" d="M691.4166666666666 642.5833333333334L750 584L500 334L250 584L308.5833333333333 642.5833333333334L500 451.1666666666666z" />
    <glyph glyph-name="filter"
      unicode="&#xEA29;"
      horiz-adv-x="1000" d="M388.8888888888889 166.6666666666666H611.1111111111111V277.7777777777779H388.8888888888889V166.6666666666666zM0 833.3333333333334V722.2222222222222H1000V833.3333333333334H0zM166.6666666666667 444.4444444444445H833.3333333333334V555.5555555555555H166.6666666666667V444.4444444444445z" />
    <glyph glyph-name="fishing"
      unicode="&#xEA2A;"
      horiz-adv-x="1000" d="M926.2547969048168 521.9320779248012C929.4448696709796 528.7814289009583 951.2432633631807 557.6755719588148 970.9787258582004 587.626082580158C970.9970746744398 587.6470526558601 971.0128022312163 587.668022731562 971.0232872690672 587.6863715478013C975.4768070962738 594.4439784427622 979.8176127665822 601.2513892675153 983.8281397445846 607.875311929876C983.9408539014826 608.061421351731 984.0535680583808 608.2501520330488 984.1662822152788 608.4362614549038C984.8163545620401 609.5162203535555 1030.9793549604715 683.5248600247446 965.2276825969342 653.5533793276993C965.2276825969342 653.5481368087737 965.2224400780088 653.5402730303856 965.2171975590832 653.53503051146C952.8632017111582 647.1994463900014 937.1513724914546 637.7524272862624 917.394939920733 624.512445739929C874.2988130937154 595.623545200998 786.6334116216159 553.3347662885062 786.6334116216159 553.3347662885062S771.3776815484304 545.0935265376307 761.3172877304087 551.371442950909C710.4753391909744 583.0886824501436 636.3985467737538 639.4300333424203 538.7409042296641 670.8012665925723C537.1131021032985 671.3255184851216 535.0501709061169 672.5653742110009 537.8549185312559 675.1630423385827L579.6771132593789 704.41105542391C579.6771132593789 704.41105542391 582.9536875878122 707.2420156436765 578.7465661501038 708.6103130832303C558.0491014322562 715.3548136808773 471.8437414809066 744.2620630360475 397.2505609495251 717.6851133432592C382.0551198439827 712.2722125526873 369.583167320234 707.8265565038689 359.328800301969 704.1725208128C354.9198418856292 702.5997651351521 350.4401094637951 700.7517772139157 341.5068572147544 699.6482269800994C138.0866378677627 692.6914043659697 0.5176987438924 543.3687378111434 0.5176987438924 484.3012770776102C0.5176987438924 444.6599702224925 21.8914484031287 418.0594291945394 99.9866315767399 381.0813219535721C101.5541447354625 381.3303416025331 113.4756327720343 372.7719294566653 139.6646360643362 380.6409503638307C146.6843689055717 382.7510642313419 196.5381026275505 401.5271457629961 198.5197747813869 402.3738125694632C200.5066894541489 403.2807683435737 201.7963491098203 403.7290037117033 202.6194245811227 403.5953194791032C203.6784134040723 403.4275588734875 204.4569274645081 401.073667875941 204.4516849455826 400.596598653721C204.2865455994296 386.4758739279048 177.8196888040765 375.0393188919411 162.7920083041499 362.4913498437728C160.2126889928072 361.2881917503721 159.5206764946421 355.298613877996 164.0371065489546 353.3588818755634C164.0423490678801 353.3588818755634 217.1071256317235 324.9077316669112 301.1473252668443 316.0609809801413C307.9416297942836 315.3453771468113 396.403894143058 258.6632625243776 485.6079749197894 273.8691886677709C532.7880239897667 281.9138339589405 555.2391112881918 284.6661563948244 565.4856145280685 287.4918740956654C574.4293518149601 289.9558579906473 570.1593201501457 292.7920607293392 570.1593201501457 292.7920607293392L525.4432549751505 328.4202193469917C522.4157002956781 331.7780527187702 524.8639566338835 334.3573720301129 527.3987145343596 335.0755971229054C626.6972655021285 363.3301528718516 705.2092289303164 407.8705936628429 751.9672552267914 446.0282676620461C758.2635204563089 451.1685574684923 774.6280432822363 438.9482458531674 786.3109967076981 433.0451695430619C825.1082580158114 413.446012540105 986.150575628578 347.0599953865832 999.4220122884642 361.112567366368C1000.5648814142218 362.2973766435295 1000.646140457567 364.061484261958 999.4823012561076 366.4861492649987C976.8215132006626 414.0855998490154 894.9176400276805 454.6862876674984 926.2547969048168 521.9320779248012zM165.2245370855788 526.5166607251451C150.8993541216683 526.5166607251451 139.2871747017006 538.3437834210581 139.2871747017006 552.9310923312432S150.8993541216683 579.3429026778786 165.2245370855788 579.3429026778786S191.1645207289198 567.5184012414284 191.1645207289198 552.9310923312432S179.5497200494894 526.5166607251451 165.2245370855788 526.5166607251451zM281.3017698743892 376.2319919474909C279.7054228615766 374.7981630213684 278.2506238597521 372.6330027051397 279.0946694067565 375.7470589468827C279.0946694067565 375.7470589468827 319.5302178790866 436.5864910772327 324.7727368045799 515.2268962190952C328.6993834797745 574.1632939794912 289.4329167278294 646.3422945456832 289.4329167278294 646.3422945456832S289.5089332522491 648.4497871537316 290.8877157296539 646.7852873948875C304.8668924444817 629.8781638601715 442.5092268333089 521.127351269738 281.3017698743892 376.2319919474909z" />
    <glyph glyph-name="fitness-center"
      unicode="&#xEA2B;"
      horiz-adv-x="1000" d="M857.4687499999999 380.84375L916.0624999999998 320.2812500000001L828.1562499999999 232.3750000000001L886.7499999999999 171.8125000000001L828.1562499999999 113.2187500000001L767.5937499999999 171.8125000000001L679.6875 83.9062500000002L619.125 142.5000000000002L560.53125 83.9062500000002L499.9687499999999 142.5000000000002L648.40625 290.9375000000003L290.96875 648.3750000000002L142.53125 499.9375000000002L83.9374999999999 560.5000000000002L142.53125 619.0937500000002L83.9374999999999 679.6562500000002L171.8437500000001 767.5625000000002L113.2500000000001 828.1250000000002L171.8437500000001 886.7187500000002L232.4062500000001 828.1250000000002L320.3125 916.0312500000002L380.8750000000001 857.4375000000002L439.4687500000001 916.0312500000002L500.0312499999999 857.4375000000002L351.59375 709.0000000000002L709.03125 351.5625000000003L857.46875 500.0000000000002L916.0625000000002 439.4375000000003z" />
    <glyph glyph-name="flight-right"
      unicode="&#xEA2C;"
      horiz-adv-x="1000" d="M972.0624999999998 558.765625C1045.875 558.515625 1045.875 447.3906249999999 969.9999999999998 447.4843749999999H660.4999999999999L400.0312499999999 14.171875H285.6875L427.6562499999999 445.421875H196.4062499999999L118.3124999999999 345.578125H27.9374999999999L75.6874999999999 499.4218749999999L27.9374999999999 653.328125H118.3124999999999L196.4062499999999 554.546875H427.6562499999999L285.6875 985.828125H400.0625L660.53125 558.765625H972.0625000000002z" />
    <glyph glyph-name="free-parking"
      unicode="&#xEA2D;"
      horiz-adv-x="1000" d="M530.265625 541C575.203125 541 612.296875 580.0625 612.296875 625S575.171875 709 530.265625 709H395.4843750000001V541.03125H530.265625zM520.515625 875C659.2031249999999 875 770.515625 763.65625 770.515625 625S659.171875 375 520.515625 375H395.515625V125H229.484375V875H520.515625z" />
    <glyph glyph-name="garden"
      unicode="&#xEA2E;"
      horiz-adv-x="1000" d="M497.683905777076 834.1658990218011C496.8294073781638 827.9756108259859 494.2273106110453 822.3871562047638 490.3513620213187 817.8567355353774C622.2476641663378 705.9279729789007 667.9361319471861 810.104838355924 497.683905777076 834.1658990218011zM489.4459797341756 813.6789928499364C488.9266131508533 814.2316971531342 488.5055051103216 814.7528183532921 487.9861385269992 815.28973110497C487.9685923586438 815.2721849366145 487.9352546387684 815.2563933850945 487.9194630872484 815.238847216739C488.4405842874062 814.6861429135413 488.9266131508533 814.2316971531342 489.4459797341756 813.6789928499364zM466.5096284598851 870.3741720401807C466.5096284598851 871.1795411676975 466.4762907400097 871.9182348554634 466.4938369083652 872.7411501513357C466.4938369083652 871.9182348554634 466.4429530201344 871.1970873360531 466.4254068517789 870.3917182085362C466.4429530201343 870.3741720401807 466.4762907400097 870.3741720401807 466.5096284598851 870.3741720401807zM498.0874676492522 838.8296705706891C498.0874676492522 838.7963328508137 498.1050138176076 838.7629951309383 498.1050138176076 838.7454489625827C498.9103829451244 838.7629951309383 499.6490766328903 838.7963328508137 500.4702373119271 838.8138790191692C499.6315304645349 838.7963328508138 498.892836776769 838.8296705706891 498.0874676492522 838.8296705706891zM462.3494319427996 870.0214940562355C440.8062464359346 1041.8335745931481 345.4691406764049 1002.8073869368776 447.2983287274642 864.0645698995481C451.6111769092425 867.2702548580953 456.7451857700575 869.3336842567004 462.3494319427996 870.0214940562355zM491.846295565206 857.3022766153441C495.1011097951486 852.8736237224196 497.1645391937536 847.6045093652674 497.7856735535378 841.8493661446681C669.6135456419704 860.7606263982103 630.8891520814142 958.5787603632056 491.846295565206 857.3022766153441zM491.628723077598 861.7151379567487C490.9567048295829 861.0940035969645 490.3197789182788 860.5746370136421 489.6495152870992 859.9692942053779C489.6653068386192 859.9359564855024 489.6828530069747 859.9201649339825 489.7161907268501 859.8850725972716C490.3689081896741 860.5079615738913 490.9391586612274 861.11154976532 491.628723077598 861.7151379567487zM442.918805105935 816.8004562003772C442.3661008027372 816.2810896170548 441.8783173224548 815.7775145852524 441.325613019257 815.238847216739C441.8958634908102 815.7582138000614 442.4169846909682 816.2126595604685 442.9872351625214 816.7320261437908C442.9521428258105 816.7671184805018 442.9363512742906 816.7829100320217 442.918805105935 816.8004562003772zM431.96297758477 838.8472167390446C432.7841382638067 838.8472167390446 433.5070404000527 838.7805412992938 434.3124095275694 838.7805412992938C434.3124095275694 838.8138790191692 434.3124095275694 838.8472167390446 434.3282010790894 838.8647629074001C433.5070404000527 838.8647629074001 432.7683467122867 838.8296705706891 431.96297758477 838.8472167390446zM434.6475413431593 842.1529148572181C435.3862350309251 848.4274246611396 437.9023555731017 854.1001008904681 441.7291748914331 858.7305347194806C310.0995745054174 966.6815809097689 264.6146422774927 862.6714041321227 434.6475413431593 842.1529148572181zM469.9504320743958 870.0214940562355C476.2266964951529 869.2828003684695 481.8800719392903 866.7491336579375 486.4947142167829 862.9082774049217C594.8826599991228 994.5852524454972 490.8391455016011 1040.105277010133 469.9504320743958 870.0214940562355zM440.4518138351538 819.7868140544808C437.3478966530684 824.0487783480282 435.3511426942142 829.098565600737 434.6808790630347 834.5852524454972C262.114313286836 812.7227266745624 298.7928236171427 717.5382725797253 440.4518138351538 819.7868140544808zM444.815545905163 862.0186866692986C444.1944115453788 862.7064964688336 443.5908233539501 863.2942931087424 442.9521428258105 863.9821029082774C443.5908233539501 863.2942931087424 444.1101899372725 862.6398210290828 444.7313242970567 861.9520112295478C444.7664166337677 861.9835943325876 444.7997543536431 862.0011405009432 444.815545905163 862.0186866692986zM451.4760714129053 836.3977716366188C451.8287493968505 833.9974558055885 452.6832477957626 831.8673509672326 454.0272842917928 829.9706101680046C454.3624161073826 829.5003728560775 454.613326314866 828.9810062727552 454.9835504671668 828.5458612975392C455.1519936833795 828.3616265298066 455.2362152914858 828.0931701539677 455.4029038908629 827.9247269377549C455.7889195946836 827.5229196824143 456.3082861780059 827.3035925779708 456.7451857700575 826.9509145940256C458.7752774487872 825.2892924507611 461.2247225512129 824.2330131157609 463.9268324779576 823.8136596920647C464.6146422774927 823.7118919156029 465.2357766372769 823.4118524367241 465.9569241566873 823.4118524367241C466.0411457647936 823.4118524367241 466.1078212045445 823.3609685484932 466.1920428126508 823.3609685484932C466.3762775803833 823.3609685484932 466.5113830767206 823.462736324955 466.6956178444532 823.462736324955C467.1816467079002 823.478527876475 467.6010001315962 823.680308812563 468.0712374435232 823.746984252314C470.520682545949 824.0663245163837 472.7174628240558 824.9541606351713 474.6650875115147 826.2981971312015C475.1511163749616 826.6508751151467 475.7055752949949 826.9017853226302 476.1582664385665 827.3053471948064C476.3425012062991 827.4737904110191 476.5951660306181 827.5580120191254 476.7794007983507 827.7247006185024C477.1654165021714 828.1107163223231 477.3829889897794 828.6142913541256 477.7181208053692 829.0336447778217C479.3797429486336 831.0637364565513 480.4202307321139 833.4973900074572 480.8571303241654 836.1977453173663C480.9746896521472 836.9013466684213 481.2764837478615 837.5558187480809 481.2764837478615 838.2945124358469C481.2764837478615 838.3611878755977 481.3273676360924 838.4278633153485 481.3273676360924 838.4962933719348C481.3273676360924 838.6805281396676 481.2273544764661 838.8489713558802 481.2273544764661 839.0332061236127C481.2098083081106 839.5034434355398 481.0080273720225 839.9052506908804 480.9588981006272 840.3579418344518C480.6395578365573 842.8740623766284 479.7341755494143 845.1059349914462 478.3252182304688 847.085142781945C478.0392156862744 847.4869500372856 477.8216431986664 847.939641180857 477.484756766241 848.3098653331579C477.3163135500284 848.4941001008905 477.2338465587576 848.7467649252094 477.065403342545 848.930999692942C476.595166030618 849.4170285563889 476.0073693907092 849.7188226521033 475.4880028073868 850.155722244155C473.4245734087818 851.7997982190639 470.975128306356 852.8578321708997 468.2221344913803 853.2420932578848C467.6852217397024 853.3105233144712 467.2149844277754 853.5438873535991 466.6622801245777 853.5614335219545C466.493836908365 853.5614335219545 466.3429398605078 853.6632012984164 466.1762512611307 853.6632012984164C466.0920296530244 853.6632012984164 466.0078080449181 853.6123174101856 465.9235864368118 853.6123174101856C465.2866605255076 853.59477124183 464.7322016054743 853.3438610343466 464.1286134140456 853.2438478747204C461.6791683116199 852.8911698907751 459.498179585033 852.001579155152 457.5681010659296 850.6259595560819C457.1820853621089 850.3575031802429 456.7627319384128 850.139930692635 456.3942624029476 849.8381365969207C456.210027635215 849.6696933807079 455.9415712593761 849.5854717726016 455.7731280431634 849.4187831732245C455.269553011361 848.9485458612975 454.9502127472912 848.3449576698688 454.530859323595 847.808044918191C452.886783348686 845.7446155195859 451.8287493968503 843.2776242488046 451.4602798613851 840.5421766021844C451.3918498047987 840.0386015703821 451.1742773171906 839.5859104268105 451.1584857656708 839.0489976751327C451.1584857656708 838.8647629074001 451.0584726060445 838.7138658595429 451.0584726060445 838.5296310918103C451.0584726060445 838.445409483704 451.1076018774399 838.378734043953 451.1076018774399 838.2945124358467C451.10760187744 837.6049480194763 451.3918498047989 837.034697547923 451.4760714129053 836.3977716366188zM899.3297363688206 656.933807079879C1073.824626047287 732.1015923147783 946.525420011405 858.1760757994473 872.3314471202352 683.6794315041452C946.5429661797604 858.1760757994473 752.8350221520377 858.1760757994473 831.2418300653595 683.6794315041452C752.8350221520377 858.1760757994473 630.8733605298944 732.1033469316138 805.3682502083609 656.933807079879C630.8733605298944 732.1015923147783 630.8733605298944 538.4111944554107 805.3682502083609 615.8441900250033C630.8733605298944 538.4111944554107 752.8367767688732 415.2248102820546 831.2418300653595 589.7196999605211C798.7428170373296 517.3873755318682 813.020134228188 475.1397113655305 835.5704697986578 462.7731719085845V393.3447383427644C826.5938500679915 405.5919638548932 815.6713602667018 410.575075667851 804.6313111374304 412.0191253235074C785.2691143571523 414.570338202395 756.9285432293724 399.7718998113786 724.0943983857526 421.6502171338333C727.214107119358 337.6075799447294 800.3026714041322 313.4798438391015 822.4511997192614 327.6238101504582C827.6027547484318 330.9119621002763 831.9296398648946 334.1158924419879 835.5722244154933 337.0864587445715V284.3514497521602H600.6711409395973V299.1832258630519C603.6399526253455 298.3445190156598 606.7456244242663 297.5233583366229 610.435583629425 296.8337939202525C630.8031758564724 293.0596131069875 677.0285563889986 332.3367109707415 654.4115453787779 394.6361363337279C637.80058779664 370.2223976839057 614.4606746501732 371.0786506996533 600.6693863227617 364.7357108391452V389.870597008378C610.3846997411939 402.1862525770933 614.1764267228143 426.3631179541166 600.6693863227617 462.3696100364081V463.5276571478702C651.9954379962276 353.6272316532876 733.8237487388691 435.9275343246917 616.1907268500241 488.1414221169451C736.1556345133131 434.9028380927314 736.1556345133131 568.0729920603587 616.1907268500241 516.3960170197831C736.1556345133131 568.0729920603587 648.6388559898232 654.7510637364564 597.6338991972627 534.7844014563318C648.6564021581787 654.7510637364564 515.4862481905514 654.7510637364564 569.3775496775892 534.7844014563318C515.4669474053603 654.7510637364564 431.6260911523446 568.0729920603587 551.5909988156336 516.3960170197831C520.971180418476 529.583717155766 498.2015177435627 530.6908803789971 483.2188445848138 525.9604333903583V741.11154976532C514.4089134535245 648.1414221169451 570.7022853884282 692.7894021143132 484.7962451199719 812.6718427863315C484.2768785366496 812.3033732508663 483.7557573364916 811.9331490985655 483.2188445848138 811.5980172829758C479.2077904987499 809.0468044040882 474.5773566697373 806.4131245339298 469.6275825766548 805.876211782252C468.569548624819 805.7411062859147 467.5466070096943 804.4830460148264 466.4727815063386 804.4830460148264C466.4394437864631 804.4830460148264 466.4061060665877 804.4830460148264 466.3885598982322 804.4830460148264C466.3218844584814 804.4830460148264 466.2710005702504 805.5059876299513 466.2043251304997 805.5059876299513C464.7444839233233 805.5059876299513 463.3688643242532 806.2780190375926 461.9599070053077 806.4622538053252C457.4979163925078 807.0658419967539 453.3517568101066 808.7941395797692 449.677589156468 811.0418037461069C448.2335395008115 811.93139448173 446.8930122384524 813.0718954248366 445.6174057990087 814.1632670965478C348.2519629775848 698.9954818616484 415.3327192174409 649.8346273632494 449.677589156468 752.518313813221V284.3479405184892H248.3177611089178V356.8644997148747C252.5288415142343 353.0903189016098 257.9997368074746 348.8283546080624 264.9462648594113 344.3997017151379C287.0947931745405 330.2539807869456 360.1816028424792 354.3817168925736 363.3013115760845 438.426108698513C330.4654121156292 416.5460367592226 302.1265956046848 431.3462297670746 282.7643988244068 428.7950168881871C270.2311707680836 427.1509409132781 257.8646313111374 420.874676492521 248.3177611089178 404.6181515111638V465.4752818353292C268.7046541211562 480.5913058735798 280.3482914418563 521.9177962012545 251.5216914506294 589.7196999605211C325.7332105101548 415.223055665219 453.0148703776812 538.4111944554107 278.5182260823792 615.8441900250033C453.0148703776812 538.3936482870553 453.0148703776812 732.1015923147781 278.5182260823792 656.933807079879C453.0148703776812 732.1015923147783 325.7156643417993 858.1760757994473 251.5216914506294 683.6794315041452C325.7332105101548 858.1760757994473 132.0252664824318 858.1760757994473 210.4320743957537 683.6794315041452C132.0252664824318 858.1760757994473 10.0636048602885 732.1033469316138 184.5602491555905 656.933807079879C10.0636048602885 732.1015923147783 10.0636048602885 538.4111944554107 184.5602491555905 615.8441900250033C10.0636048602885 538.4111944554107 132.0270210992673 415.2248102820546 210.4320743957537 589.7196999605211C177.9330613677237 517.3873755318682 192.2103785585822 475.1397113655305 214.760714129052 462.7731719085845V424.5348072114752C210.1460718515593 426.7824713778129 205.398078694565 428.1756371452384 200.5992016493397 428.7967715050226C181.2370048690616 431.3479843839101 152.8981883581172 416.5495459928938 120.0622888976619 438.4278633153484C123.03110058341 358.4612010352239 189.257358424354 332.8227398341886 214.760714129052 342.7064964688335V284.3496951353246H63.758389261745C45.2191077773391 284.3496951353248 30.2013422818792 269.3336842567004 30.2013422818792 250.792648155459V49.4503662762644C30.2013422818792 30.9110847918586 45.2191077773391 15.8933192963987 63.758389261745 15.8933192963987H936.241610738255C954.780892222661 15.8933192963987 969.7986577181208 30.9110847918586 969.7986577181208 49.4503662762644V250.7926481554591C969.7986577181208 269.3319296398648 954.780892222661 284.3496951353249 936.241610738255 284.3496951353249H869.1275167785235V465.4752818353292C889.5126551739264 480.5913058735798 901.1580471114622 521.9177962012545 872.3314471202352 589.7196999605211C946.5429661797604 415.223055665219 1073.824626047287 538.4111944554107 899.3297363688206 615.8441900250033C1073.824626047287 538.4111944554107 1073.824626047287 732.1015923147783 899.3297363688206 656.933807079879zM207.7685660393912 637.1522568759046C207.7685660393912 650.1381760757995 218.3050401368601 660.676404790104 231.2927139535904 660.676404790104S254.8168618677897 650.1399306926351 254.8168618677897 637.1522568759046S244.2803877703207 613.6281089617055 231.2927139535904 613.6281089617055S207.7685660393912 624.1487915076546 207.7685660393912 637.1522568759046zM597.7339123568892 502.9240689564416C597.7339123568892 495.1388340571127 591.4260648330921 488.8292319164802 583.6408299337634 488.8292319164802C575.8555950344345 488.8292319164802 569.5477475106375 495.1388340571127 569.5477475106375 502.9240689564416S575.85734965127 517.0171513795674 583.6408299337634 517.0171513795674C591.4260648330921 517.0171513795674 597.7339123568892 510.6917576874149 597.7339123568892 502.9240689564416zM483.2223538184849 477.6716234592271C498.2050269772339 473.1429574066763 520.9746896521473 474.5519147256217 551.5945080493047 488.1431767337808C433.2894679124446 435.6415317804974 513.1877001359828 352.6902662631049 567.115848576567 465.4752818353293V464.7190419792079C550.303110058341 424.1136991709436 555.5055489757424 398.1418607711542 567.115848576567 386.8333552660438V284.3496951353249H483.2241084353204V477.6716234592271zM885.9069175768742 250.792648155459C904.44619906128 250.792648155459 919.46396455674 235.774882659999 919.46396455674 217.2356011755932S904.44619906128 183.6785541957274 885.9069175768742 183.6785541957274H114.0930824231259C95.55380093872 183.6785541957274 80.5360354432601 198.6963196911875 80.5360354432601 217.2356011755932S95.55380093872 250.792648155459 114.0930824231259 250.792648155459H214.7642233627232V200.4562003772426H248.321270342589V250.792648155459H449.6635522217837V200.4562003772426H483.2205992016494V250.792648155459H567.1140939597316V200.4562003772426H600.6711409395973V250.792648155459H835.5704697986578V200.4562003772426H869.1275167785235V250.792648155459H885.9069175768742zM852.1147519410449 613.6123174101856C839.1288327411502 613.6123174101856 828.5923586436812 624.1487915076546 828.5923586436812 637.1364653243847S839.1288327411502 660.6606132385841 852.1147519410449 660.6606132385841S875.6371452384086 650.1241391411152 875.6371452384086 637.1364653243847S865.1006711409397 613.6123174101856 852.1147519410449 613.6123174101856z" />
    </font>
</defs>
</svg>
